<?xml version="1.0" encoding="utf-8"?>
<!-- Uploaded to: SVG Repo, www.svgrepo.com, Generator: SVG Repo Mixer Tools -->
<svg xmlns="http://www.w3.org/2000/svg" fill="#ff0000" viewBox="0 0 24 24" id="warning-alt" data-name="Flat Line" class="icon flat-line">
  <path id="secondary" d="M10.25,4.19,2.63,18a2,2,0,0,0,1.75,3H19.62a2,2,0,0,0,1.75-3L13.75,4.19A2,2,0,0,0,10.25,4.19Z" style="fill: #ffff00; stroke-width: 2;"/>
  <line id="primary-upstroke" x1="12.05" y1="17" x2="11.95" y2="17" style="fill: none; stroke: #ff0000; stroke-linecap: round; stroke-linejoin: round; stroke-width: 2.5;"/>
  <path id="primary" d="M12,9v4M10.25,4.19,2.63,18a2,2,0,0,0,1.75,3H19.62a2,2,0,0,0,1.75-3L13.75,4.19A2,2,0,0,0,10.25,4.19Z" style="fill: none; stroke: #ff0000; stroke-linecap: round; stroke-linejoin: round; stroke-width: 2;"/>
</svg>
